<mxfile host="app.diagrams.net" modified="2023-04-15T13:56:09.119Z" agent="Mozilla/5.0 (Windows NT 10.0; Win64; x64) AppleWebKit/537.36 (KHTML, like Gecko) Chrome/111.0.5563.147 Safari/537.36" etag="FGBOqgbfCrrmxwCxAnfO" version="21.1.5" type="device">
  <diagram name="페이지-1" id="llx291fPK-RHZWgx3TOp">
    <mxGraphModel dx="1434" dy="756" grid="1" gridSize="10" guides="1" tooltips="1" connect="1" arrows="1" fold="1" page="1" pageScale="1" pageWidth="819" pageHeight="380" math="0" shadow="0">
      <root>
        <mxCell id="0" />
        <mxCell id="1" parent="0" />
        <mxCell id="mGjTMVar7i08zAuHtkDy-46" value="" style="rounded=0;whiteSpace=wrap;html=1;dashed=1;fillColor=none;" vertex="1" parent="1">
          <mxGeometry x="280" y="10" width="520" height="300" as="geometry" />
        </mxCell>
        <mxCell id="mGjTMVar7i08zAuHtkDy-2" value="split &quot;//{2,}&quot;&lt;br&gt;-&amp;gt; chunk" style="rounded=0;whiteSpace=wrap;html=1;" vertex="1" parent="1">
          <mxGeometry x="20" y="80" width="160" height="40" as="geometry" />
        </mxCell>
        <mxCell id="mGjTMVar7i08zAuHtkDy-3" value="page text&lt;br&gt;" style="rounded=1;whiteSpace=wrap;html=1;" vertex="1" parent="1">
          <mxGeometry x="20" y="20" width="160" height="40" as="geometry" />
        </mxCell>
        <mxCell id="mGjTMVar7i08zAuHtkDy-6" value="" style="edgeStyle=orthogonalEdgeStyle;rounded=0;orthogonalLoop=1;jettySize=auto;html=1;" edge="1" parent="1" source="mGjTMVar7i08zAuHtkDy-4" target="mGjTMVar7i08zAuHtkDy-5">
          <mxGeometry relative="1" as="geometry" />
        </mxCell>
        <mxCell id="mGjTMVar7i08zAuHtkDy-4" value="&quot;TITLE&quot; in chunk" style="rhombus;whiteSpace=wrap;html=1;" vertex="1" parent="1">
          <mxGeometry x="20" y="140" width="160" height="40" as="geometry" />
        </mxCell>
        <mxCell id="mGjTMVar7i08zAuHtkDy-5" value="pass" style="whiteSpace=wrap;html=1;" vertex="1" parent="1">
          <mxGeometry x="220" y="150" width="40" height="20" as="geometry" />
        </mxCell>
        <mxCell id="mGjTMVar7i08zAuHtkDy-7" value="&lt;span style=&quot;color: rgb(0, 0, 0); font-family: Helvetica; font-size: 12px; font-style: normal; font-variant-ligatures: normal; font-variant-caps: normal; font-weight: 400; letter-spacing: normal; orphans: 2; text-align: center; text-indent: 0px; text-transform: none; widows: 2; word-spacing: 0px; -webkit-text-stroke-width: 0px; background-color: rgb(251, 251, 251); text-decoration-thickness: initial; text-decoration-style: initial; text-decoration-color: initial; float: none; display: inline !important;&quot;&gt;split &quot;\n&quot;&lt;br&gt;-&amp;gt; line&lt;br&gt;&lt;/span&gt;" style="rounded=0;whiteSpace=wrap;html=1;" vertex="1" parent="1">
          <mxGeometry x="20" y="200" width="160" height="40" as="geometry" />
        </mxCell>
        <mxCell id="mGjTMVar7i08zAuHtkDy-18" style="edgeStyle=orthogonalEdgeStyle;rounded=0;orthogonalLoop=1;jettySize=auto;html=1;entryX=0.5;entryY=0;entryDx=0;entryDy=0;" edge="1" parent="1" source="mGjTMVar7i08zAuHtkDy-8" target="mGjTMVar7i08zAuHtkDy-20">
          <mxGeometry relative="1" as="geometry">
            <mxPoint x="100" y="320" as="targetPoint" />
          </mxGeometry>
        </mxCell>
        <mxCell id="mGjTMVar7i08zAuHtkDy-8" value="line length &amp;gt; 1" style="rhombus;whiteSpace=wrap;html=1;" vertex="1" parent="1">
          <mxGeometry x="20" y="260" width="160" height="40" as="geometry" />
        </mxCell>
        <mxCell id="mGjTMVar7i08zAuHtkDy-9" value="True" style="text;html=1;strokeColor=none;fillColor=none;align=center;verticalAlign=middle;whiteSpace=wrap;rounded=0;" vertex="1" parent="1">
          <mxGeometry x="100" y="180" width="40" height="20" as="geometry" />
        </mxCell>
        <mxCell id="mGjTMVar7i08zAuHtkDy-10" value="False" style="text;html=1;strokeColor=none;fillColor=none;align=center;verticalAlign=middle;whiteSpace=wrap;rounded=0;" vertex="1" parent="1">
          <mxGeometry x="180" y="140" width="40" height="20" as="geometry" />
        </mxCell>
        <mxCell id="mGjTMVar7i08zAuHtkDy-11" value="" style="endArrow=classic;html=1;rounded=0;exitX=0.5;exitY=1;exitDx=0;exitDy=0;entryX=0.5;entryY=0;entryDx=0;entryDy=0;" edge="1" parent="1" source="mGjTMVar7i08zAuHtkDy-3" target="mGjTMVar7i08zAuHtkDy-2">
          <mxGeometry width="50" height="50" relative="1" as="geometry">
            <mxPoint x="130" y="220" as="sourcePoint" />
            <mxPoint x="180" y="170" as="targetPoint" />
          </mxGeometry>
        </mxCell>
        <mxCell id="mGjTMVar7i08zAuHtkDy-12" value="" style="endArrow=classic;html=1;rounded=0;exitX=0.5;exitY=1;exitDx=0;exitDy=0;" edge="1" parent="1" source="mGjTMVar7i08zAuHtkDy-2" target="mGjTMVar7i08zAuHtkDy-4">
          <mxGeometry width="50" height="50" relative="1" as="geometry">
            <mxPoint x="130" y="220" as="sourcePoint" />
            <mxPoint x="180" y="170" as="targetPoint" />
          </mxGeometry>
        </mxCell>
        <mxCell id="mGjTMVar7i08zAuHtkDy-13" value="" style="endArrow=classic;html=1;rounded=0;exitX=0;exitY=0;exitDx=0;exitDy=0;entryX=0;entryY=1;entryDx=0;entryDy=0;" edge="1" parent="1" source="mGjTMVar7i08zAuHtkDy-9" target="mGjTMVar7i08zAuHtkDy-9">
          <mxGeometry width="50" height="50" relative="1" as="geometry">
            <mxPoint x="130" y="220" as="sourcePoint" />
            <mxPoint x="180" y="170" as="targetPoint" />
          </mxGeometry>
        </mxCell>
        <mxCell id="mGjTMVar7i08zAuHtkDy-14" value="" style="endArrow=classic;html=1;rounded=0;exitX=0.5;exitY=1;exitDx=0;exitDy=0;entryX=0.5;entryY=0;entryDx=0;entryDy=0;" edge="1" parent="1" source="mGjTMVar7i08zAuHtkDy-7" target="mGjTMVar7i08zAuHtkDy-8">
          <mxGeometry width="50" height="50" relative="1" as="geometry">
            <mxPoint x="130" y="220" as="sourcePoint" />
            <mxPoint x="180" y="170" as="targetPoint" />
          </mxGeometry>
        </mxCell>
        <mxCell id="mGjTMVar7i08zAuHtkDy-15" value="pass" style="whiteSpace=wrap;html=1;" vertex="1" parent="1">
          <mxGeometry x="220" y="270" width="40" height="20" as="geometry" />
        </mxCell>
        <mxCell id="mGjTMVar7i08zAuHtkDy-16" value="" style="endArrow=classic;html=1;rounded=0;exitX=1;exitY=0.5;exitDx=0;exitDy=0;entryX=0;entryY=0.5;entryDx=0;entryDy=0;" edge="1" parent="1" source="mGjTMVar7i08zAuHtkDy-8" target="mGjTMVar7i08zAuHtkDy-15">
          <mxGeometry width="50" height="50" relative="1" as="geometry">
            <mxPoint x="130" y="220" as="sourcePoint" />
            <mxPoint x="180" y="170" as="targetPoint" />
          </mxGeometry>
        </mxCell>
        <mxCell id="mGjTMVar7i08zAuHtkDy-28" value="" style="edgeStyle=orthogonalEdgeStyle;rounded=0;orthogonalLoop=1;jettySize=auto;html=1;" edge="1" parent="1" source="mGjTMVar7i08zAuHtkDy-20" target="mGjTMVar7i08zAuHtkDy-27">
          <mxGeometry relative="1" as="geometry" />
        </mxCell>
        <mxCell id="mGjTMVar7i08zAuHtkDy-20" value="insert data&amp;nbsp;" style="shape=process;whiteSpace=wrap;html=1;backgroundOutline=1;" vertex="1" parent="1">
          <mxGeometry x="20" y="320" width="160" height="40" as="geometry" />
        </mxCell>
        <mxCell id="mGjTMVar7i08zAuHtkDy-38" style="edgeStyle=orthogonalEdgeStyle;rounded=0;orthogonalLoop=1;jettySize=auto;html=1;" edge="1" parent="1" source="mGjTMVar7i08zAuHtkDy-21" target="mGjTMVar7i08zAuHtkDy-22">
          <mxGeometry relative="1" as="geometry" />
        </mxCell>
        <mxCell id="mGjTMVar7i08zAuHtkDy-21" value="insert data&amp;nbsp;" style="shape=process;whiteSpace=wrap;html=1;backgroundOutline=1;" vertex="1" parent="1">
          <mxGeometry x="300" y="20" width="160" height="40" as="geometry" />
        </mxCell>
        <mxCell id="mGjTMVar7i08zAuHtkDy-40" style="edgeStyle=orthogonalEdgeStyle;rounded=0;orthogonalLoop=1;jettySize=auto;html=1;entryX=0;entryY=0.5;entryDx=0;entryDy=0;" edge="1" parent="1" source="mGjTMVar7i08zAuHtkDy-22" target="mGjTMVar7i08zAuHtkDy-23">
          <mxGeometry relative="1" as="geometry" />
        </mxCell>
        <mxCell id="mGjTMVar7i08zAuHtkDy-42" value="" style="edgeStyle=orthogonalEdgeStyle;rounded=0;orthogonalLoop=1;jettySize=auto;html=1;" edge="1" parent="1" source="mGjTMVar7i08zAuHtkDy-22" target="mGjTMVar7i08zAuHtkDy-41">
          <mxGeometry relative="1" as="geometry" />
        </mxCell>
        <mxCell id="mGjTMVar7i08zAuHtkDy-22" value="line[0] == &quot; &quot;" style="rhombus;whiteSpace=wrap;html=1;" vertex="1" parent="1">
          <mxGeometry x="300" y="80" width="160" height="40" as="geometry" />
        </mxCell>
        <mxCell id="mGjTMVar7i08zAuHtkDy-36" style="edgeStyle=orthogonalEdgeStyle;rounded=0;orthogonalLoop=1;jettySize=auto;html=1;entryX=0.5;entryY=0;entryDx=0;entryDy=0;" edge="1" parent="1" source="mGjTMVar7i08zAuHtkDy-23" target="mGjTMVar7i08zAuHtkDy-24">
          <mxGeometry relative="1" as="geometry" />
        </mxCell>
        <mxCell id="mGjTMVar7i08zAuHtkDy-23" value="&quot;: &quot; in line" style="rhombus;whiteSpace=wrap;html=1;" vertex="1" parent="1">
          <mxGeometry x="500" y="80" width="160" height="40" as="geometry" />
        </mxCell>
        <mxCell id="mGjTMVar7i08zAuHtkDy-35" style="edgeStyle=orthogonalEdgeStyle;rounded=0;orthogonalLoop=1;jettySize=auto;html=1;entryX=0.5;entryY=0;entryDx=0;entryDy=0;" edge="1" parent="1" source="mGjTMVar7i08zAuHtkDy-24" target="mGjTMVar7i08zAuHtkDy-25">
          <mxGeometry relative="1" as="geometry" />
        </mxCell>
        <mxCell id="mGjTMVar7i08zAuHtkDy-24" value="&lt;span style=&quot;color: rgb(0, 0, 0); font-family: Helvetica; font-size: 12px; font-style: normal; font-variant-ligatures: normal; font-variant-caps: normal; font-weight: 400; letter-spacing: normal; orphans: 2; text-align: center; text-indent: 0px; text-transform: none; widows: 2; word-spacing: 0px; -webkit-text-stroke-width: 0px; background-color: rgb(251, 251, 251); text-decoration-thickness: initial; text-decoration-style: initial; text-decoration-color: initial; float: none; display: inline !important;&quot;&gt;split &quot;: *&quot;&lt;br&gt;-&amp;gt; key, value&lt;br&gt;&lt;/span&gt;" style="rounded=0;whiteSpace=wrap;html=1;" vertex="1" parent="1">
          <mxGeometry x="500" y="140" width="160" height="40" as="geometry" />
        </mxCell>
        <mxCell id="mGjTMVar7i08zAuHtkDy-30" value="" style="edgeStyle=orthogonalEdgeStyle;rounded=0;orthogonalLoop=1;jettySize=auto;html=1;" edge="1" parent="1" source="mGjTMVar7i08zAuHtkDy-25" target="mGjTMVar7i08zAuHtkDy-29">
          <mxGeometry relative="1" as="geometry" />
        </mxCell>
        <mxCell id="mGjTMVar7i08zAuHtkDy-34" style="edgeStyle=orthogonalEdgeStyle;rounded=0;orthogonalLoop=1;jettySize=auto;html=1;entryX=0.5;entryY=0;entryDx=0;entryDy=0;" edge="1" parent="1" source="mGjTMVar7i08zAuHtkDy-25" target="mGjTMVar7i08zAuHtkDy-26">
          <mxGeometry relative="1" as="geometry" />
        </mxCell>
        <mxCell id="mGjTMVar7i08zAuHtkDy-25" value="keyPre == key" style="rhombus;whiteSpace=wrap;html=1;" vertex="1" parent="1">
          <mxGeometry x="500" y="200" width="160" height="40" as="geometry" />
        </mxCell>
        <mxCell id="mGjTMVar7i08zAuHtkDy-48" value="" style="edgeStyle=orthogonalEdgeStyle;rounded=0;orthogonalLoop=1;jettySize=auto;html=1;" edge="1" parent="1" source="mGjTMVar7i08zAuHtkDy-26" target="mGjTMVar7i08zAuHtkDy-47">
          <mxGeometry relative="1" as="geometry" />
        </mxCell>
        <mxCell id="mGjTMVar7i08zAuHtkDy-26" value="&lt;span style=&quot;color: rgb(0, 0, 0); font-family: Helvetica; font-size: 12px; font-style: normal; font-variant-ligatures: normal; font-variant-caps: normal; font-weight: 400; letter-spacing: normal; orphans: 2; text-align: center; text-indent: 0px; text-transform: none; widows: 2; word-spacing: 0px; -webkit-text-stroke-width: 0px; background-color: rgb(251, 251, 251); text-decoration-thickness: initial; text-decoration-style: initial; text-decoration-color: initial; float: none; display: inline !important;&quot;&gt;dataDic[key][numRow]&lt;br&gt;+= value&lt;br&gt;&lt;/span&gt;" style="rounded=0;whiteSpace=wrap;html=1;" vertex="1" parent="1">
          <mxGeometry x="500" y="260" width="160" height="40" as="geometry" />
        </mxCell>
        <mxCell id="mGjTMVar7i08zAuHtkDy-27" value="numRow += 1" style="whiteSpace=wrap;html=1;" vertex="1" parent="1">
          <mxGeometry x="220" y="330" width="80" height="20" as="geometry" />
        </mxCell>
        <mxCell id="mGjTMVar7i08zAuHtkDy-29" value="dataDic[key]&lt;br&gt;= value" style="whiteSpace=wrap;html=1;" vertex="1" parent="1">
          <mxGeometry x="700" y="200" width="80" height="40" as="geometry" />
        </mxCell>
        <mxCell id="mGjTMVar7i08zAuHtkDy-44" style="edgeStyle=orthogonalEdgeStyle;rounded=0;orthogonalLoop=1;jettySize=auto;html=1;entryX=0.5;entryY=0;entryDx=0;entryDy=0;" edge="1" parent="1" source="mGjTMVar7i08zAuHtkDy-41" target="mGjTMVar7i08zAuHtkDy-43">
          <mxGeometry relative="1" as="geometry" />
        </mxCell>
        <mxCell id="mGjTMVar7i08zAuHtkDy-41" value="split &quot;: *&quot;&lt;br&gt;-&amp;gt; value" style="whiteSpace=wrap;html=1;" vertex="1" parent="1">
          <mxGeometry x="300" y="140" width="160" height="40" as="geometry" />
        </mxCell>
        <mxCell id="mGjTMVar7i08zAuHtkDy-43" value="dataDic[key][numRow]&lt;br style=&quot;border-color: var(--border-color);&quot;&gt;+= value" style="whiteSpace=wrap;html=1;" vertex="1" parent="1">
          <mxGeometry x="300" y="200" width="160" height="40" as="geometry" />
        </mxCell>
        <mxCell id="mGjTMVar7i08zAuHtkDy-47" value="key -&amp;gt; keyPre" style="whiteSpace=wrap;html=1;rounded=0;" vertex="1" parent="1">
          <mxGeometry x="700" y="270" width="80" height="20" as="geometry" />
        </mxCell>
        <mxCell id="mGjTMVar7i08zAuHtkDy-49" value="" style="endArrow=classic;html=1;rounded=0;entryX=0.5;entryY=1;entryDx=0;entryDy=0;dashed=1;" edge="1" parent="1" target="mGjTMVar7i08zAuHtkDy-46">
          <mxGeometry width="50" height="50" relative="1" as="geometry">
            <mxPoint x="300" y="340" as="sourcePoint" />
            <mxPoint x="-160" y="140" as="targetPoint" />
            <Array as="points">
              <mxPoint x="540" y="340" />
            </Array>
          </mxGeometry>
        </mxCell>
        <mxCell id="mGjTMVar7i08zAuHtkDy-50" value="False" style="text;html=1;strokeColor=none;fillColor=none;align=center;verticalAlign=middle;whiteSpace=wrap;rounded=0;" vertex="1" parent="1">
          <mxGeometry x="460" y="80" width="40" height="20" as="geometry" />
        </mxCell>
        <mxCell id="mGjTMVar7i08zAuHtkDy-51" value="False" style="text;html=1;strokeColor=none;fillColor=none;align=center;verticalAlign=middle;whiteSpace=wrap;rounded=0;" vertex="1" parent="1">
          <mxGeometry x="660" y="200" width="40" height="20" as="geometry" />
        </mxCell>
        <mxCell id="mGjTMVar7i08zAuHtkDy-52" value="True" style="text;html=1;strokeColor=none;fillColor=none;align=center;verticalAlign=middle;whiteSpace=wrap;rounded=0;" vertex="1" parent="1">
          <mxGeometry x="380" y="120" width="40" height="20" as="geometry" />
        </mxCell>
        <mxCell id="mGjTMVar7i08zAuHtkDy-53" value="True" style="text;html=1;strokeColor=none;fillColor=none;align=center;verticalAlign=middle;whiteSpace=wrap;rounded=0;" vertex="1" parent="1">
          <mxGeometry x="580" y="120" width="40" height="20" as="geometry" />
        </mxCell>
        <mxCell id="mGjTMVar7i08zAuHtkDy-55" value="pass" style="whiteSpace=wrap;html=1;" vertex="1" parent="1">
          <mxGeometry x="700" y="90" width="40" height="20" as="geometry" />
        </mxCell>
        <mxCell id="mGjTMVar7i08zAuHtkDy-56" value="False" style="text;html=1;strokeColor=none;fillColor=none;align=center;verticalAlign=middle;whiteSpace=wrap;rounded=0;" vertex="1" parent="1">
          <mxGeometry x="660" y="80" width="40" height="20" as="geometry" />
        </mxCell>
        <mxCell id="mGjTMVar7i08zAuHtkDy-58" value="" style="endArrow=classic;html=1;rounded=0;exitX=0;exitY=1;exitDx=0;exitDy=0;entryX=0;entryY=0.5;entryDx=0;entryDy=0;" edge="1" parent="1" source="mGjTMVar7i08zAuHtkDy-56" target="mGjTMVar7i08zAuHtkDy-55">
          <mxGeometry width="50" height="50" relative="1" as="geometry">
            <mxPoint x="590" y="210" as="sourcePoint" />
            <mxPoint x="640" y="160" as="targetPoint" />
          </mxGeometry>
        </mxCell>
        <mxCell id="mGjTMVar7i08zAuHtkDy-59" value="True" style="text;html=1;strokeColor=none;fillColor=none;align=center;verticalAlign=middle;whiteSpace=wrap;rounded=0;" vertex="1" parent="1">
          <mxGeometry x="580" y="240" width="40" height="20" as="geometry" />
        </mxCell>
        <mxCell id="mGjTMVar7i08zAuHtkDy-60" value="" style="endArrow=classic;html=1;rounded=0;exitX=0.5;exitY=0;exitDx=0;exitDy=0;entryX=1;entryY=1;entryDx=0;entryDy=0;dashed=1;" edge="1" parent="1" source="mGjTMVar7i08zAuHtkDy-47" target="mGjTMVar7i08zAuHtkDy-25">
          <mxGeometry width="50" height="50" relative="1" as="geometry">
            <mxPoint x="590" y="210" as="sourcePoint" />
            <mxPoint x="640" y="160" as="targetPoint" />
            <Array as="points">
              <mxPoint x="740" y="250" />
              <mxPoint x="620" y="250" />
            </Array>
          </mxGeometry>
        </mxCell>
        <mxCell id="mGjTMVar7i08zAuHtkDy-61" value="False" style="text;html=1;strokeColor=none;fillColor=none;align=center;verticalAlign=middle;whiteSpace=wrap;rounded=0;" vertex="1" parent="1">
          <mxGeometry x="180" y="260" width="40" height="20" as="geometry" />
        </mxCell>
        <mxCell id="mGjTMVar7i08zAuHtkDy-62" value="True" style="text;html=1;strokeColor=none;fillColor=none;align=center;verticalAlign=middle;whiteSpace=wrap;rounded=0;" vertex="1" parent="1">
          <mxGeometry x="100" y="300" width="40" height="20" as="geometry" />
        </mxCell>
      </root>
    </mxGraphModel>
  </diagram>
</mxfile>
